# xmcd CD database file
#
# Track frame offsets:
#	182
#	14941
#	30155
#	43982
#	66247
#	81183
#	96623
#	110346
#	123989
#	135477
#	150663
#	165729
#	232876
#	246931
#	261013
#	275369
#	287207
#	300605
#	313505
#
# Disc length: 4376 seconds
#
# Revision: 0
# Processed by: cddbd v1.5.2PL0 Copyright (c) Steve Scherf et al.
# Submitted via: CDex 1.70beta2
#
DISCID=0a111613
DTITLE=Ray Ventura - Du Jazz à la Chanson 1926-1946 CD2
DYEAR=1997
DGENRE=Jazz
TTITLE0=C'est ce qui fait son charme - 1935
TTITLE1=Quand un Vicomte - 1935
TTITLE2=Chez moi - 1935
TTITLE3=Lustucru théâtre (radio) - présentation et C'est gentil quand on y passe - 1935
TTITLE4=J'entends des voix - 1937
TTITLE5=Aux îles vent-debout - 1937
TTITLE6=Le bateau de pêche - 1937
TTITLE7=Au premier - 1937
TTITLE8=C'était un cannibale - 1938
TTITLE9=Beckless night on board and ocean liner - 1938
TTITLE10=Comme tout le monde - 1938
TTITLE11=Feux de joie (bande originale du film) - 1938
TTITLE12=La complainte des caleçons - 1939
TTITLE13=J'ai besoin de vous - 1939
TTITLE14=Ah ! Que c'était bon - 1941
TTITLE15=Boléro de Ravel en swing - 1942
TTITLE16=Le premier rendez-vous - 1942
TTITLE17=Monsieur de la Palice - 1946
TTITLE18=Maria de Bahia - 1946
EXTD=YEAR: 1997
EXTT0=
EXTT1=
EXTT2=
EXTT3=
EXTT4=
EXTT5=
EXTT6=
EXTT7=
EXTT8=
EXTT9=
EXTT10=
EXTT11=
EXTT12=
EXTT13=
EXTT14=
EXTT15=
EXTT16=
EXTT17=
EXTT18=
PLAYORDER=
